<svg width="24" height="24" viewBox="0 0 24 24" fill="none" xmlns="http://www.w3.org/2000/svg">
<g id="Layer_1" clip-path="url(#clip0_58_371)">
<g id="htrGOF">
<path id="Vector" d="M11.8254 0.0144507C12.3072 -0.0687912 12.7034 0.205567 12.7588 0.700772C12.794 1.0142 12.7949 2.20167 12.7059 2.46414C12.4499 3.22011 11.3395 3.09865 11.2513 2.22121C11.2186 1.89334 11.2077 0.893587 11.269 0.592897C11.3227 0.33043 11.5611 0.0594693 11.8263 0.0144507H11.8254Z" fill="black"/>
<path id="Vector_2" d="M3.82491 2.21017C4.22779 2.1694 5.10573 3.00947 5.26605 3.35517C5.58416 4.04234 4.91185 4.70064 4.26556 4.36427C4.15644 4.30736 3.32718 3.47409 3.25416 3.35602C2.96543 2.88715 3.28186 2.26538 3.82491 2.21017Z" fill="black"/>
<path id="Vector_3" d="M20.0393 2.20933C20.6738 2.12099 21.1002 2.9033 20.699 3.42738C20.5941 3.56498 19.8932 4.27679 19.7698 4.34984C19.1697 4.70489 18.4773 4.1205 18.698 3.43757C18.7962 3.13349 19.7161 2.25435 20.0393 2.20933Z" fill="black"/>
</g>
<path id="Vector_4" d="M23.5585 22.3963H0.441491C0.197662 22.3963 0 22.5964 0 22.8431V23.5532C0 23.8 0.197662 24 0.441491 24H23.5585C23.8023 24 24 23.8 24 23.5532V22.8431C24 22.5964 23.8023 22.3963 23.5585 22.3963Z" fill="black"/>
<path id="Vector_5" d="M23.0415 20.9379C23.0012 20.7272 22.9945 20.3781 22.9769 20.2575C22.2256 15.0107 17.966 10.9557 12.7134 10.6439V9.03176H14.9981C15.307 9.03176 15.6125 8.72682 15.6478 8.41679C15.892 6.25929 13.7265 4.46535 11.6869 4.62079C9.90418 4.75669 8.09541 6.58037 8.35812 8.45501C8.39841 8.74296 8.72155 9.03176 9.00441 9.03176H11.2891V10.6439C6.034 10.9633 1.77688 15.0056 1.02567 20.2575C1.00721 20.3849 1.00805 20.7255 0.960205 20.9379H23.0423H23.0415Z" fill="black"/>
</g>
<defs>
<clipPath id="clip0_58_371">
<rect width="24" height="24" fill="white"/>
</clipPath>
</defs>
</svg>
